<svg preserveAspectRatio="none" width="100%" height="100%" overflow="visible" style="display: block;" viewBox="0 0 20 20" fill="none" xmlns="http://www.w3.org/2000/svg">
<g id="microphone">
<path id="Vector" d="M10.0012 1.66667C7.69999 1.66667 5.83451 3.53215 5.83451 5.83333V9.16667C5.83451 11.4678 7.69999 13.3333 10.0012 13.3333C12.3023 13.3333 14.1678 11.4678 14.1678 9.16667V5.83333C14.1678 3.53215 12.3023 1.66667 10.0012 1.66667Z" fill="var(--fill-0, #1A1A1A)"/>
<path id="Vector_2" d="M4.87882 12.0463C4.62829 11.6603 4.11222 11.5504 3.72615 11.801C3.34007 12.0515 3.23021 12.5676 3.48075 12.9537C4.4171 14.3965 6.20656 16.3153 9.16783 16.624V17.5C9.16783 17.9603 9.54092 18.3333 10.0012 18.3333C10.4614 18.3333 10.8345 17.9603 10.8345 17.5V16.624C13.7958 16.3153 15.5852 14.3965 16.5216 12.9537C16.7722 12.5676 16.6623 12.0515 16.2762 11.801C15.8902 11.5504 15.3741 11.6603 15.1235 12.0463C14.2572 13.3813 12.6679 15 10.0012 15C7.33442 15 5.74517 13.3813 4.87882 12.0463Z" fill="var(--fill-0, #1A1A1A)"/>
</g>
</svg>
