<svg preserveAspectRatio="none" width="100%" height="100%" overflow="visible" style="display: block;" viewBox="0 0 20 20" fill="none" xmlns="http://www.w3.org/2000/svg">
<g id="prompt">
<path id="Vector" fill-rule="evenodd" clip-rule="evenodd" d="M1.66667 6.66667C1.66667 4.82572 3.15905 3.33333 5 3.33333C5.46023 3.33333 5.83333 3.70643 5.83333 4.16667C5.83333 4.6269 5.46023 5 5 5C4.07952 5 3.33333 5.74619 3.33333 6.66667C3.33333 7.1269 2.96023 7.5 2.5 7.5C2.03977 7.5 1.66667 7.1269 1.66667 6.66667ZM14.1667 4.16667C14.1667 3.70643 14.5397 3.33333 15 3.33333C16.8409 3.33333 18.3333 4.82572 18.3333 6.66667C18.3333 7.1269 17.9602 7.5 17.5 7.5C17.0397 7.5 16.6667 7.1269 16.6667 6.66667C16.6667 5.74619 15.9205 5 15 5C14.5397 5 14.1667 4.6269 14.1667 4.16667ZM5.83333 8.33333C5.83333 7.8731 6.20643 7.5 6.66667 7.5H13.3333C13.7936 7.5 14.1667 7.8731 14.1667 8.33333C14.1667 8.79358 13.7936 9.16667 13.3333 9.16667H6.66667C6.20643 9.16667 5.83333 8.79358 5.83333 8.33333ZM5.83333 11.6667C5.83333 11.2064 6.20643 10.8333 6.66667 10.8333H11.6667C12.1269 10.8333 12.5 11.2064 12.5 11.6667C12.5 12.1269 12.1269 12.5 11.6667 12.5H6.66667C6.20643 12.5 5.83333 12.1269 5.83333 11.6667ZM2.5 12.5C2.96023 12.5 3.33333 12.8731 3.33333 13.3333C3.33333 14.2538 4.07952 15 5 15C5.46023 15 5.83333 15.3731 5.83333 15.8333C5.83333 16.2936 5.46023 16.6667 5 16.6667C3.15905 16.6667 1.66667 15.1743 1.66667 13.3333C1.66667 12.8731 2.03977 12.5 2.5 12.5ZM17.5 12.5C17.9602 12.5 18.3333 12.8731 18.3333 13.3333C18.3333 15.1743 16.8409 16.6667 15 16.6667C14.5397 16.6667 14.1667 16.2936 14.1667 15.8333C14.1667 15.3731 14.5397 15 15 15C15.9205 15 16.6667 14.2538 16.6667 13.3333C16.6667 12.8731 17.0397 12.5 17.5 12.5Z" fill="var(--fill-0, #1A1A1A)"/>
</g>
</svg>
