<svg preserveAspectRatio="none" width="100%" height="100%" overflow="visible" style="display: block;" viewBox="0 0 16 16" fill="none" xmlns="http://www.w3.org/2000/svg">
<g id="prompt">
<path id="Vector" fill-rule="evenodd" clip-rule="evenodd" d="M1.33333 5.33333C1.33333 3.86057 2.52724 2.66667 4 2.66667C4.36819 2.66667 4.66667 2.96515 4.66667 3.33333C4.66667 3.70152 4.36819 4 4 4C3.26362 4 2.66667 4.59695 2.66667 5.33333C2.66667 5.70152 2.36819 6 2 6C1.63181 6 1.33333 5.70152 1.33333 5.33333ZM11.3333 3.33333C11.3333 2.96515 11.6318 2.66667 12 2.66667C13.4727 2.66667 14.6667 3.86057 14.6667 5.33333C14.6667 5.70152 14.3682 6 14 6C13.6318 6 13.3333 5.70152 13.3333 5.33333C13.3333 4.59695 12.7364 4 12 4C11.6318 4 11.3333 3.70152 11.3333 3.33333ZM4.66667 6.66667C4.66667 6.29848 4.96515 6 5.33333 6H10.6667C11.0349 6 11.3333 6.29848 11.3333 6.66667C11.3333 7.03487 11.0349 7.33333 10.6667 7.33333H5.33333C4.96515 7.33333 4.66667 7.03487 4.66667 6.66667ZM4.66667 9.33333C4.66667 8.96513 4.96515 8.66667 5.33333 8.66667H9.33333C9.70153 8.66667 10 8.96513 10 9.33333C10 9.70153 9.70153 10 9.33333 10H5.33333C4.96515 10 4.66667 9.70153 4.66667 9.33333ZM2 10C2.36819 10 2.66667 10.2985 2.66667 10.6667C2.66667 11.4031 3.26362 12 4 12C4.36819 12 4.66667 12.2985 4.66667 12.6667C4.66667 13.0349 4.36819 13.3333 4 13.3333C2.52724 13.3333 1.33333 12.1394 1.33333 10.6667C1.33333 10.2985 1.63181 10 2 10ZM14 10C14.3682 10 14.6667 10.2985 14.6667 10.6667C14.6667 12.1394 13.4727 13.3333 12 13.3333C11.6318 13.3333 11.3333 13.0349 11.3333 12.6667C11.3333 12.2985 11.6318 12 12 12C12.7364 12 13.3333 11.4031 13.3333 10.6667C13.3333 10.2985 13.6318 10 14 10Z" fill="var(--fill-0, white)"/>
</g>
</svg>
