<svg preserveAspectRatio="none" width="100%" height="100%" overflow="visible" style="display: block;" viewBox="0 0 32 32" fill="none" xmlns="http://www.w3.org/2000/svg">
<g id="calendar-2" opacity="0">
<path id="Vector" fill-rule="evenodd" clip-rule="evenodd" d="M0.432426 0.108187C0.462279 0.108187 0.48648 0.132388 0.48648 0.162241V0.216295H0.810804V0.162241C0.810804 0.132388 0.835004 0.108187 0.864858 0.108187C0.894712 0.108187 0.918912 0.132388 0.918912 0.162241V0.216295C1.03832 0.216295 1.13513 0.313099 1.13513 0.432512V0.918998C1.13513 1.03841 1.03832 1.13521 0.918912 1.13521H0.378372C0.258959 1.13521 0.162156 1.03841 0.162156 0.918998V0.432512C0.162156 0.313099 0.258959 0.216295 0.378372 0.216295V0.162241C0.378372 0.132388 0.402573 0.108187 0.432426 0.108187ZM0.270264 0.594674V0.918998C0.270264 0.978706 0.318665 1.02711 0.378372 1.02711H0.918912C0.97862 1.02711 1.02702 0.978706 1.02702 0.918998V0.594674H0.270264Z" fill="var(--fill-0, #1A1A1A)"/>
</g>
</svg>
