<svg preserveAspectRatio="none" width="100%" height="100%" overflow="visible" style="display: block;" viewBox="0 0 18 18" fill="none" xmlns="http://www.w3.org/2000/svg">
<g id="summary">
<path id="Vector" fill-rule="evenodd" clip-rule="evenodd" d="M3 3.75C3.41421 3.75 3.75 4.08579 3.75 4.5V10.5C3.75 11.3284 4.42157 12 5.25 12H12.75V11.25C12.75 10.9617 12.9152 10.6989 13.1751 10.574C13.435 10.4491 13.7434 10.4843 13.9685 10.6643L15.8435 12.1643C16.0214 12.3067 16.125 12.5222 16.125 12.75C16.125 12.9778 16.0214 13.1933 15.8435 13.3357L13.9685 14.8357C13.7434 15.0157 13.435 15.0509 13.1751 14.926C12.9152 14.8011 12.75 14.5383 12.75 14.25V13.5H5.25C3.59314 13.5 2.25 12.1568 2.25 10.5V4.5C2.25 4.08579 2.58579 3.75 3 3.75ZM6 5.25C6 4.83579 6.33579 4.5 6.75 4.5H12.75C13.1642 4.5 13.5 4.83579 13.5 5.25C13.5 5.66421 13.1642 6 12.75 6H6.75C6.33579 6 6 5.66421 6 5.25ZM6 9C6 8.58578 6.33579 8.25 6.75 8.25H9.75C10.1642 8.25 10.5 8.58578 10.5 9C10.5 9.41422 10.1642 9.75 9.75 9.75H6.75C6.33579 9.75 6 9.41422 6 9Z" fill="var(--fill-0, #3B82F6)"/>
</g>
</svg>
