<svg preserveAspectRatio="none" width="100%" height="100%" overflow="visible" style="display: block;" viewBox="0 0 20 20" fill="none" xmlns="http://www.w3.org/2000/svg">
<g id="bold">
<path id="Vector" fill-rule="evenodd" clip-rule="evenodd" d="M4.16667 6.35417C4.16667 4.30313 5.76991 2.5 7.91667 2.5H10.6944C13.2247 2.5 15.1389 4.62959 15.1389 7.08333C15.1389 7.98593 14.8799 8.84467 14.4265 9.56967C15.3009 10.4186 15.8333 11.6226 15.8333 12.9167C15.8333 15.3704 13.9192 17.5 11.3889 17.5H7.91667C5.76991 17.5 4.16667 15.6968 4.16667 13.6458V6.35417ZM10.6944 8.33333C11.2324 8.33333 11.8056 7.85125 11.8056 7.08333C11.8056 6.31542 11.2324 5.83333 10.6944 5.83333H7.91667C7.76224 5.83333 7.5 5.98896 7.5 6.35417V8.33333H10.6944ZM7.5 11.6667H11.3889C11.9268 11.6667 12.5 12.1487 12.5 12.9167C12.5 13.6846 11.9268 14.1667 11.3889 14.1667H7.91667C7.76224 14.1667 7.5 14.0111 7.5 13.6458V11.6667Z" fill="var(--fill-0, white)"/>
</g>
</svg>
