<svg preserveAspectRatio="none" width="100%" height="100%" overflow="visible" style="display: block;" viewBox="0 0 20 20" fill="none" xmlns="http://www.w3.org/2000/svg">
<g id="h1">
<path id="Vector" fill-rule="evenodd" clip-rule="evenodd" d="M2.5 3.33333C2.96023 3.33333 3.33333 3.70643 3.33333 4.16667V9.16667H10V4.16667C10 3.70643 10.3731 3.33333 10.8333 3.33333C11.2936 3.33333 11.6667 3.70643 11.6667 4.16667V15.8333C11.6667 16.2936 11.2936 16.6667 10.8333 16.6667C10.3731 16.6667 10 16.2936 10 15.8333V10.8333H3.33333V15.8333C3.33333 16.2936 2.96023 16.6667 2.5 16.6667C2.03977 16.6667 1.66667 16.2936 1.66667 15.8333V4.16667C1.66667 3.70643 2.03977 3.33333 2.5 3.33333ZM17.8535 8.412C18.1462 8.54917 18.3333 8.84333 18.3333 9.16667V15.8333C18.3333 16.2936 17.9602 16.6667 17.5 16.6667C17.0397 16.6667 16.6667 16.2936 16.6667 15.8333V10.9458L15.5335 11.8902C15.1799 12.1848 14.6544 12.1371 14.3598 11.7835C14.0652 11.4299 14.1129 10.9044 14.4665 10.6098L16.9665 8.5265C17.2149 8.31948 17.5607 8.27486 17.8535 8.412Z" fill="var(--fill-0, white)"/>
</g>
</svg>
