<svg preserveAspectRatio="none" width="100%" height="100%" overflow="visible" style="display: block;" viewBox="0 0 16 16" fill="none" xmlns="http://www.w3.org/2000/svg">
<g id="circle-x">
<path id="Vector" fill-rule="evenodd" clip-rule="evenodd" d="M1.33333 8C1.33333 4.3181 4.3181 1.33333 8 1.33333C11.6819 1.33333 14.6667 4.3181 14.6667 8C14.6667 11.6819 11.6819 14.6667 8 14.6667C4.3181 14.6667 1.33333 11.6819 1.33333 8ZM6.47141 5.52859C6.21105 5.26825 5.78895 5.26825 5.52859 5.52859C5.26825 5.78895 5.26825 6.21105 5.52859 6.47141L7.0572 8L5.52859 9.5286C5.26825 9.78893 5.26825 10.2111 5.52859 10.4714C5.78895 10.7317 6.21105 10.7317 6.47141 10.4714L8 8.9428L9.5286 10.4714C9.78893 10.7317 10.2111 10.7317 10.4714 10.4714C10.7317 10.2111 10.7317 9.78893 10.4714 9.5286L8.9428 8L10.4714 6.47141C10.7317 6.21105 10.7317 5.78895 10.4714 5.52859C10.2111 5.26825 9.78893 5.26825 9.5286 5.52859L8 7.0572L6.47141 5.52859Z" fill="var(--fill-0, white)"/>
</g>
</svg>
