<svg preserveAspectRatio="none" width="100%" height="100%" overflow="visible" style="display: block;" viewBox="0 0 12 12" fill="none" xmlns="http://www.w3.org/2000/svg">
<g id="dot-grid-1x3-horizontal">
<path id="Vector" fill-rule="evenodd" clip-rule="evenodd" d="M1 6C1 5.4477 1.44771 5 2 5C2.55229 5 3 5.4477 3 6C3 6.5523 2.55229 7 2 7C1.44771 7 1 6.5523 1 6ZM5 6C5 5.4477 5.4477 5 6 5C6.5523 5 7 5.4477 7 6C7 6.5523 6.5523 7 6 7C5.4477 7 5 6.5523 5 6ZM9 6C9 5.4477 9.4477 5 10 5C10.5523 5 11 5.4477 11 6C11 6.5523 10.5523 7 10 7C9.4477 7 9 6.5523 9 6Z" fill="var(--fill-0, white)"/>
</g>
</svg>
