<svg preserveAspectRatio="none" width="100%" height="100%" overflow="visible" style="display: block;" viewBox="0 0 18 18" fill="none" xmlns="http://www.w3.org/2000/svg">
<g id="Frame">
<path id="Vector" fill-rule="evenodd" clip-rule="evenodd" d="M1.5 3C1.5 2.17157 2.17157 1.5 3 1.5H8.25C8.742 1.5 9.17865 1.73687 9.45217 2.1028C9.55395 2.11334 9.6552 2.14498 9.74948 2.19943L13.3349 4.26943C13.7609 4.51542 14.0206 4.93889 14.0746 5.39255C14.1574 5.45257 14.2294 5.53062 14.2839 5.625L16.3541 9.21075C16.7684 9.9282 16.5225 10.8456 15.8051 11.2597L8.62508 15.4051C7.69215 15.9438 6.76365 16.5 5.625 16.5C3.34682 16.5 1.5 14.6532 1.5 12.375V3ZM10.144 12.7962L15.0551 9.96075L13.418 7.12531L10.144 12.7962ZM9.75 10.4786L12.5849 5.56847L9.75 3.93178V10.4786ZM4.5 12.375C4.5 11.7537 5.00368 11.25 5.625 11.25C6.24632 11.25 6.75 11.7537 6.75 12.375C6.75 12.9963 6.24632 13.5 5.625 13.5C5.00368 13.5 4.5 12.9963 4.5 12.375Z" fill="var(--fill-0, #52525B)"/>
</g>
</svg>
