<svg preserveAspectRatio="none" width="100%" height="100%" overflow="visible" style="display: block;" viewBox="0 0 20 20" fill="none" xmlns="http://www.w3.org/2000/svg">
<g id="divider">
<path id="Vector" fill-rule="evenodd" clip-rule="evenodd" d="M1.66667 4.16667C1.66667 3.70643 2.03977 3.33333 2.5 3.33333H4.16667C4.6269 3.33333 5 3.70643 5 4.16667C5 4.6269 4.6269 5 4.16667 5H2.5C2.03977 5 1.66667 4.6269 1.66667 4.16667ZM1.66667 4.16667C1.66667 3.70643 2.03977 3.33333 2.5 3.33333H4.16667C4.6269 3.33333 5 3.70643 5 4.16667C5 4.6269 4.6269 5 4.16667 5H2.5C2.03977 5 1.66667 4.6269 1.66667 4.16667ZM1.66667 4.16667C1.66667 3.70643 2.03977 3.33333 2.5 3.33333H4.16667C4.6269 3.33333 5 3.70643 5 4.16667C5 4.6269 4.6269 5 4.16667 5H2.5C2.03977 5 1.66667 4.6269 1.66667 4.16667ZM1.66667 4.16667C1.66667 3.70643 2.03977 3.33333 2.5 3.33333H4.16667C4.6269 3.33333 5 3.70643 5 4.16667C5 4.6269 4.6269 5 4.16667 5H2.5C2.03977 5 1.66667 4.6269 1.66667 4.16667ZM1.66667 4.16667C1.66667 3.70643 2.03977 3.33333 2.5 3.33333H4.16667C4.6269 3.33333 5 3.70643 5 4.16667C5 4.6269 4.6269 5 4.16667 5H2.5C2.03977 5 1.66667 4.6269 1.66667 4.16667ZM1.66667 4.16667C1.66667 3.70643 2.03977 3.33333 2.5 3.33333H4.16667C4.6269 3.33333 5 3.70643 5 4.16667C5 4.6269 4.6269 5 4.16667 5H2.5C2.03977 5 1.66667 4.6269 1.66667 4.16667ZM1.66667 4.16667C1.66667 3.70643 2.03977 3.33333 2.5 3.33333H4.16667C4.6269 3.33333 5 3.70643 5 4.16667C5 4.6269 4.6269 5 4.16667 5H2.5C2.03977 5 1.66667 4.6269 1.66667 4.16667Z" fill="var(--fill-0, white)"/>
<path id="Vector_2" d="M8.33333 4.16667C8.33333 3.70643 8.70642 3.33333 9.16667 3.33333H10.8333C11.2936 3.33333 11.6667 3.70643 11.6667 4.16667C11.6667 4.6269 11.2936 5 10.8333 5H9.16667C8.70642 5 8.33333 4.6269 8.33333 4.16667Z" fill="var(--fill-0, white)"/>
<path id="Vector_3" d="M15 4.16667C15 3.70643 15.3731 3.33333 15.8333 3.33333H17.5C17.9603 3.33333 18.3333 3.70643 18.3333 4.16667C18.3333 4.6269 17.9603 5 17.5 5H15.8333C15.3731 5 15 4.6269 15 4.16667Z" fill="var(--fill-0, white)"/>
<path id="Vector_4" d="M1.66667 10C1.66667 9.53975 2.03977 9.16667 2.5 9.16667H17.5C17.9602 9.16667 18.3333 9.53975 18.3333 10C18.3333 10.4603 17.9602 10.8333 17.5 10.8333H2.5C2.03977 10.8333 1.66667 10.4603 1.66667 10Z" fill="var(--fill-0, white)"/>
<path id="Vector_5" d="M1.66667 15.8333C1.66667 15.3731 2.03977 15 2.5 15H4.16667C4.6269 15 5 15.3731 5 15.8333C5 16.2936 4.6269 16.6667 4.16667 16.6667H2.5C2.03977 16.6667 1.66667 16.2936 1.66667 15.8333Z" fill="var(--fill-0, white)"/>
<path id="Vector_6" d="M8.33333 15.8333C8.33333 15.3731 8.70642 15 9.16667 15H10.8333C11.2936 15 11.6667 15.3731 11.6667 15.8333C11.6667 16.2936 11.2936 16.6667 10.8333 16.6667H9.16667C8.70642 16.6667 8.33333 16.2936 8.33333 15.8333Z" fill="var(--fill-0, white)"/>
<path id="Vector_7" d="M15 15.8333C15 15.3731 15.3731 15 15.8333 15H17.5C17.9603 15 18.3333 15.3731 18.3333 15.8333C18.3333 16.2936 17.9603 16.6667 17.5 16.6667H15.8333C15.3731 16.6667 15 16.2936 15 15.8333Z" fill="var(--fill-0, white)"/>
</g>
</svg>
