<svg preserveAspectRatio="none" width="100%" height="100%" overflow="visible" style="display: block;" viewBox="0 0 20 20" fill="none" xmlns="http://www.w3.org/2000/svg">
<g id="title-case">
<path id="Vector" d="M1.93771 15.3539C2.51517 15.3539 2.83998 15.0652 3.04209 14.3723L3.59068 12.7482H7.35133L7.89992 14.3938C8.0948 15.0724 8.41958 15.3539 9.03317 15.3539C9.66833 15.3539 10.1231 14.928 10.1231 14.3289C10.1231 14.1123 10.087 13.9175 9.986 13.636L7.12757 5.88367C6.81719 5.03192 6.31192 4.65658 5.46017 4.65658C4.6373 4.65658 4.12482 5.04636 3.82165 5.89088L0.9777 13.636C0.883858 13.903 0.833333 14.1484 0.833333 14.3289C0.833333 14.9569 1.25921 15.3539 1.93771 15.3539ZM4.06707 11.0591L5.41687 6.79315H5.46739L6.84606 11.0591H4.06707Z" fill="var(--fill-0, white)"/>
<path id="Vector_2" d="M13.8869 15.3394C14.8542 15.3394 15.8214 14.8559 16.2545 14.033H16.2978V14.43C16.3411 15.0508 16.7381 15.3684 17.3083 15.3684C17.9075 15.3684 18.3333 15.0074 18.3333 14.3073V9.89702C18.3333 8.33785 17.0413 7.31288 15.0563 7.31288C13.4538 7.31288 12.2123 7.88311 11.8514 8.80702C11.7793 8.96585 11.7432 9.11743 11.7432 9.28343C11.7432 9.75985 12.1113 10.0919 12.6238 10.0919C12.963 10.0919 13.2301 9.96194 13.4611 9.7021C13.9303 9.09577 14.32 8.88644 14.9624 8.88644C15.7564 8.88644 16.2618 9.3051 16.2618 10.0269V10.5394L14.3128 10.6549C12.3783 10.7704 11.2957 11.586 11.2957 12.9936C11.2957 14.3867 12.4144 15.3394 13.8869 15.3394ZM14.5799 13.8164C13.8725 13.8164 13.3961 13.4555 13.3961 12.8781C13.3961 12.3295 13.8437 11.9758 14.6304 11.9181L16.2618 11.817V12.38C16.2618 13.2174 15.5038 13.8164 14.5799 13.8164Z" fill="var(--fill-0, white)"/>
</g>
</svg>
