<svg preserveAspectRatio="none" width="100%" height="100%" overflow="visible" style="display: block;" viewBox="0 0 16 16" fill="none" xmlns="http://www.w3.org/2000/svg">
<g id="Group">
<path id="Vector" opacity="0" d="M16 0H0V16H16V0Z" fill="var(--fill-0, white)"/>
<path id="Vector_2" d="M7.87009 15.2881V0.699652C3.80809 0.699652 0.689081 3.86651 0.689081 7.99689C0.689081 12.1212 3.80809 15.2881 7.87009 15.2881ZM7.87009 15.9877C12.2161 15.9877 15.7462 12.4097 15.7462 7.99689C15.7462 3.58419 12.2161 0 7.87009 0C3.52399 0 0 3.58419 0 7.99689C0 12.4097 3.52399 15.9877 7.87009 15.9877ZM7.87009 14.8461C4.14055 14.8461 1.1243 11.7837 1.1243 7.99689C1.1243 4.2102 4.14055 1.14768 7.87009 1.14768C11.5996 1.14768 14.6159 4.2102 14.6159 7.99689C14.6159 11.7837 11.5996 14.8461 7.87009 14.8461Z" fill="var(--fill-0, white)"/>
</g>
</svg>
