<svg preserveAspectRatio="none" width="100%" height="100%" overflow="visible" style="display: block;" viewBox="0 0 20 20" fill="none" xmlns="http://www.w3.org/2000/svg">
<g id="chain-link-3">
<path id="Vector" fill-rule="evenodd" clip-rule="evenodd" d="M15.4454 4.55457C13.8171 2.92626 11.1771 2.92626 9.54883 4.55457L9.54492 4.55844L8.91867 5.17645C8.59117 5.49974 8.06351 5.49628 7.74022 5.1687C7.41693 4.84113 7.42039 4.31351 7.74797 3.99022L8.37233 3.37404C10.6517 1.09687 14.3454 1.09754 16.6239 3.37606C18.9025 5.65459 18.9032 9.34842 16.6259 11.6278L16.6239 11.6298L16.0098 12.252C15.6865 12.5796 15.1588 12.5831 14.8313 12.2598C14.5037 11.9365 14.5002 11.4088 14.8236 11.0813L15.4454 10.4512C17.0737 8.82292 17.0737 6.18288 15.4454 4.55457ZM5.1687 7.74022C5.49627 8.06351 5.49974 8.59117 5.17645 8.91867L4.55458 9.54883C2.92627 11.1771 2.92626 13.8171 4.55457 15.4454C6.18288 17.0738 8.82292 17.0738 10.4512 15.4454L10.4551 15.4416L11.0813 14.8236C11.4088 14.5003 11.9365 14.5038 12.2598 14.8313C12.5831 15.1588 12.5796 15.6865 12.252 16.0098L11.6297 16.6239L11.6277 16.6259C9.34833 18.9032 5.65458 18.9024 3.37606 16.6239C1.09754 14.3454 1.09687 10.6517 3.37405 8.37225L3.99022 7.74797C4.31351 7.42039 4.84113 7.41693 5.1687 7.74022ZM12.2559 7.74408C12.5813 8.06952 12.5813 8.59717 12.2559 8.92258L8.92258 12.2559C8.59717 12.5813 8.06952 12.5813 7.74407 12.2559C7.41864 11.9305 7.41864 11.4028 7.74407 11.0774L11.0774 7.74408C11.4028 7.41864 11.9305 7.41864 12.2559 7.74408Z" fill="var(--fill-0, white)"/>
</g>
</svg>
