<svg preserveAspectRatio="none" width="100%" height="100%" overflow="visible" style="display: block;" viewBox="0 0 20 20" fill="none" xmlns="http://www.w3.org/2000/svg">
<g id="voice-1">
<path id="Vector" d="M7.5 3.33333C7.5 2.8731 7.1269 2.5 6.66667 2.5C6.20643 2.5 5.83333 2.8731 5.83333 3.33333V16.6667C5.83333 17.1269 6.20643 17.5 6.66667 17.5C7.1269 17.5 7.5 17.1269 7.5 16.6667V3.33333Z" fill="var(--fill-0, #52525B)"/>
<path id="Vector_2" d="M14.1667 5C14.1667 4.53977 13.7936 4.16667 13.3333 4.16667C12.8731 4.16667 12.5 4.53977 12.5 5V15C12.5 15.4602 12.8731 15.8333 13.3333 15.8333C13.7936 15.8333 14.1667 15.4602 14.1667 15V5Z" fill="var(--fill-0, #52525B)"/>
<path id="Vector_3" d="M10.8333 6.66667C10.8333 6.20643 10.4603 5.83333 10 5.83333C9.53975 5.83333 9.16667 6.20643 9.16667 6.66667V13.3333C9.16667 13.7936 9.53975 14.1667 10 14.1667C10.4603 14.1667 10.8333 13.7936 10.8333 13.3333V6.66667Z" fill="var(--fill-0, #52525B)"/>
<path id="Vector_4" d="M4.16667 8.33333C4.16667 7.8731 3.79357 7.5 3.33333 7.5C2.8731 7.5 2.5 7.8731 2.5 8.33333V11.6667C2.5 12.1269 2.8731 12.5 3.33333 12.5C3.79357 12.5 4.16667 12.1269 4.16667 11.6667V8.33333Z" fill="var(--fill-0, #52525B)"/>
<path id="Vector_5" d="M17.5 8.33333C17.5 7.8731 17.1269 7.5 16.6667 7.5C16.2064 7.5 15.8333 7.8731 15.8333 8.33333V11.6667C15.8333 12.1269 16.2064 12.5 16.6667 12.5C17.1269 12.5 17.5 12.1269 17.5 11.6667V8.33333Z" fill="var(--fill-0, #52525B)"/>
</g>
</svg>
