<svg preserveAspectRatio="none" width="100%" height="100%" overflow="visible" style="display: block;" viewBox="0 0 19 19" fill="none" xmlns="http://www.w3.org/2000/svg">
<g id="summary">
<path id="Vector" fill-rule="evenodd" clip-rule="evenodd" d="M3.15005 3.9375C3.58497 3.9375 3.93755 4.29008 3.93755 4.725V11.025C3.93755 11.8949 4.6427 12.6 5.51255 12.6H13.3875V11.8125C13.3875 11.5098 13.561 11.2338 13.8339 11.1027C14.1068 10.9716 14.4306 11.0085 14.667 11.1975L16.6358 12.7725C16.8225 12.922 16.9313 13.1483 16.9313 13.3875C16.9313 13.6267 16.8225 13.853 16.6358 14.0025L14.667 15.5775C14.4306 15.7665 14.1068 15.8034 13.8339 15.6723C13.561 15.5412 13.3875 15.2652 13.3875 14.9625V14.175H5.51255C3.77285 14.175 2.36255 12.7647 2.36255 11.025V4.725C2.36255 4.29008 2.71513 3.9375 3.15005 3.9375ZM6.30005 5.5125C6.30005 5.07758 6.65263 4.725 7.08755 4.725H13.3875C13.8225 4.725 14.175 5.07758 14.175 5.5125C14.175 5.94742 13.8225 6.3 13.3875 6.3H7.08755C6.65263 6.3 6.30005 5.94742 6.30005 5.5125ZM6.30005 9.45C6.30005 9.01506 6.65263 8.6625 7.08755 8.6625H10.2375C10.6725 8.6625 11.025 9.01506 11.025 9.45C11.025 9.88494 10.6725 10.2375 10.2375 10.2375H7.08755C6.65263 10.2375 6.30005 9.88494 6.30005 9.45Z" fill="var(--fill-0, #3B82F6)"/>
</g>
</svg>
