<svg preserveAspectRatio="none" width="100%" height="100%" overflow="visible" style="display: block;" viewBox="0 0 20 20" fill="none" xmlns="http://www.w3.org/2000/svg">
<g id="circle-x">
<path id="Vector" fill-rule="evenodd" clip-rule="evenodd" d="M1.66667 10C1.66667 5.39762 5.39762 1.66667 10 1.66667C14.6023 1.66667 18.3333 5.39762 18.3333 10C18.3333 14.6023 14.6023 18.3333 10 18.3333C5.39762 18.3333 1.66667 14.6023 1.66667 10ZM8.08926 6.91074C7.76382 6.58531 7.23618 6.58531 6.91074 6.91074C6.58531 7.23618 6.58531 7.76382 6.91074 8.08926L8.8215 10L6.91074 11.9107C6.58531 12.2362 6.58531 12.7638 6.91074 13.0892C7.23618 13.4147 7.76382 13.4147 8.08926 13.0892L10 11.1785L11.9107 13.0892C12.2362 13.4147 12.7638 13.4147 13.0892 13.0892C13.4147 12.7638 13.4147 12.2362 13.0892 11.9107L11.1785 10L13.0892 8.08926C13.4147 7.76382 13.4147 7.23618 13.0892 6.91074C12.7638 6.58531 12.2362 6.58531 11.9107 6.91074L10 8.8215L8.08926 6.91074Z" fill="var(--fill-0, white)"/>
</g>
</svg>
