<svg preserveAspectRatio="none" width="100%" height="100%" overflow="visible" style="display: block;" viewBox="0 0 10 10" fill="none" xmlns="http://www.w3.org/2000/svg">
<g id="chain-link-3">
<path id="Vector" fill-rule="evenodd" clip-rule="evenodd" d="M7.72271 2.27728C6.90854 1.46313 5.58854 1.46313 4.77442 2.27728L4.77246 2.27922L4.45933 2.58823C4.29558 2.74987 4.03175 2.74814 3.87011 2.58435C3.70846 2.42057 3.7102 2.15675 3.87398 1.99511L4.18617 1.68702C5.32583 0.548434 7.17271 0.548771 8.31196 1.68803C9.45125 2.8273 9.45158 4.67421 8.31296 5.81388L8.31196 5.81488L8.00487 6.126C7.84325 6.28979 7.57942 6.29154 7.41567 6.12988C7.25187 5.96825 7.25012 5.70442 7.41179 5.54067L7.72271 5.22558C8.53687 4.41146 8.53687 3.09144 7.72271 2.27728ZM2.58435 3.87011C2.74814 4.03175 2.74987 4.29558 2.58822 4.45933L2.27729 4.77442C1.46313 5.58854 1.46313 6.90854 2.27728 7.72271C3.09144 8.53688 4.41146 8.53688 5.22558 7.72271L5.22754 7.72079L5.54067 7.41179C5.70442 7.25013 5.96825 7.25188 6.12988 7.41567C6.29154 7.57942 6.28979 7.84325 6.126 8.00488L5.81487 8.31196L5.81383 8.31296C4.67417 9.45158 2.82729 9.45121 1.68803 8.31196C0.548771 7.17271 0.548433 5.32583 1.68703 4.18613L1.99511 3.87398C2.15675 3.7102 2.42057 3.70846 2.58435 3.87011ZM6.12796 3.87204C6.29067 4.03476 6.29067 4.29858 6.12796 4.46129L4.46129 6.12796C4.29858 6.29067 4.03476 6.29067 3.87204 6.12796C3.70932 5.96525 3.70932 5.70142 3.87204 5.53871L5.53871 3.87204C5.70142 3.70932 5.96525 3.70932 6.12796 3.87204Z" fill="var(--fill-0, white)"/>
</g>
</svg>
