<svg preserveAspectRatio="none" width="100%" height="100%" overflow="visible" style="display: block;" viewBox="0 0 20 20" fill="none" xmlns="http://www.w3.org/2000/svg">
<g id="list-sparkle">
<path id="Vector" d="M3.33333 4.16667C2.8731 4.16667 2.5 4.53977 2.5 5C2.5 5.46023 2.8731 5.83333 3.33333 5.83333H16.6667C17.1269 5.83333 17.5 5.46023 17.5 5C17.5 4.53977 17.1269 4.16667 16.6667 4.16667H3.33333Z" fill="var(--fill-0, #1A1A1A)"/>
<path id="Vector_2" d="M14.9326 8.00507C14.8013 7.69867 14.5 7.5 14.1667 7.5C13.8333 7.5 13.532 7.69867 13.4008 8.00507L12.282 10.6153L9.67175 11.7341C9.36533 11.8653 9.16667 12.1667 9.16667 12.5C9.16667 12.8333 9.36533 13.1347 9.67175 13.2659L12.282 14.3847L13.4008 16.9949C13.532 17.3013 13.8333 17.5 14.1667 17.5C14.5 17.5 14.8013 17.3013 14.9326 16.9949L16.0513 14.3847L18.6616 13.2659C18.968 13.1347 19.1667 12.8333 19.1667 12.5C19.1667 12.1667 18.968 11.8653 18.6616 11.7341L16.0513 10.6153L14.9326 8.00507Z" fill="var(--fill-0, #1A1A1A)"/>
<path id="Vector_3" d="M3.33333 9.16667C2.8731 9.16667 2.5 9.53975 2.5 10C2.5 10.4603 2.8731 10.8333 3.33333 10.8333H7.5C7.96023 10.8333 8.33333 10.4603 8.33333 10C8.33333 9.53975 7.96023 9.16667 7.5 9.16667H3.33333Z" fill="var(--fill-0, #1A1A1A)"/>
<path id="Vector_4" d="M3.33333 14.1667C2.8731 14.1667 2.5 14.5397 2.5 15C2.5 15.4602 2.8731 15.8333 3.33333 15.8333H5.83333C6.29357 15.8333 6.66667 15.4602 6.66667 15C6.66667 14.5397 6.29357 14.1667 5.83333 14.1667H3.33333Z" fill="var(--fill-0, #1A1A1A)"/>
</g>
</svg>
