<svg preserveAspectRatio="none" width="100%" height="100%" overflow="visible" style="display: block;" viewBox="0 0 20 20" fill="none" xmlns="http://www.w3.org/2000/svg">
<g id="Frame">
<g id="icon">
<path fill-rule="evenodd" clip-rule="evenodd" d="M7.75426 1.45078C8.79968 -0.495335 11.5349 -0.480457 12.5601 1.47692L13.4626 3.20007L15.5143 2.97879C17.5804 2.75594 19.125 4.88123 18.3239 6.84463L17.5675 8.6983L19.1894 10.2318C20.611 11.5758 20.0814 13.9918 18.2353 14.5845L16.116 15.2648L16.0026 17.525C15.9035 19.5003 13.7586 20.6296 12.1326 19.5626L10.0187 18.1753L7.84104 19.594C6.22078 20.6495 4.08983 19.5318 3.97901 17.5683L3.84852 15.2559L1.7782 14.6044C-0.10453 14.0119 -0.622599 11.5336 0.858257 10.2035L2.46489 8.76038L1.69719 6.7803C0.939485 4.826 2.47594 2.74524 4.51814 2.96001L6.81384 3.20143L7.75426 1.45078ZM6.24115 4.26753L4.40641 4.07459C3.1811 3.94573 2.25922 5.19418 2.71384 6.36676L3.33787 7.97627L4.01442 7.3686C4.73149 6.72452 5.33343 5.95731 5.79319 5.10143L6.24115 4.26753ZM3.76641 9.08158L4.73564 8.21101C5.54832 7.48106 6.23052 6.61156 6.75158 5.64156L7.42293 4.39181L9.21349 4.58012C9.85297 4.64737 10.4975 4.64651 11.1368 4.57755L12.8461 4.3932L13.5248 5.68886C14.0138 6.62253 14.6515 7.46608 15.4116 8.18474L16.263 8.98974L15.8292 10.0528C15.4164 11.0645 15.1773 12.1416 15.1224 13.2366L15.0626 14.4288L13.6105 14.8949C12.8321 15.1448 12.0893 15.4984 11.401 15.9468L10.0209 16.846L8.691 15.9732C7.98071 15.5071 7.2118 15.1421 6.40543 14.8884L4.8967 14.4136L4.82374 13.1209C4.76634 12.1037 4.54993 11.1025 4.18276 10.1555L3.76641 9.08158ZM2.89343 9.86569L1.57948 11.0459C0.742476 11.7977 1.0353 13.1985 2.09945 13.5334L3.78117 14.0626L3.73168 13.1856C3.68102 12.288 3.49007 11.4046 3.16611 10.569L2.89343 9.86569ZM4.96404 15.6069L5.07108 17.5036C5.13371 18.6134 6.33817 19.2452 7.25396 18.6486L9.00333 17.5089L8.10086 16.9166C7.47414 16.5053 6.79569 16.1833 6.08418 15.9594L4.96404 15.6069ZM11.0363 17.5123L12.7228 18.6191C13.6418 19.2223 14.8541 18.584 14.9101 17.4675L15.0027 15.6222L13.9376 15.9641C13.2508 16.1845 12.5954 16.4966 11.9881 16.8922L11.0363 17.5123ZM16.1758 14.0714L17.9082 13.5153C18.9516 13.1803 19.251 11.8148 18.4475 11.0551L17.1185 9.79862L16.8385 10.4849C16.4743 11.3775 16.2633 12.3279 16.2148 13.2941L16.1758 14.0714ZM16.712 7.88942L17.3146 6.41257C17.7953 5.23453 16.8685 3.95936 15.6288 4.09307L14.0211 4.26647L14.4887 5.15918C14.9202 5.98301 15.4829 6.72732 16.1535 7.36143L16.712 7.88942ZM12.2876 3.3268L11.0223 3.46327C10.4582 3.52412 9.88946 3.52487 9.32521 3.46554L7.99562 3.32571L8.71266 1.99091C9.33991 0.823239 10.981 0.832166 11.5962 2.00659L12.2876 3.3268Z" fill="url(#paint0_linear_318_3102)"/>
<path fill-rule="evenodd" clip-rule="evenodd" d="M7.75426 1.45078C8.79968 -0.495335 11.5349 -0.480457 12.5601 1.47692L13.4626 3.20007L15.5143 2.97879C17.5804 2.75594 19.125 4.88123 18.3239 6.84463L17.5675 8.6983L19.1894 10.2318C20.611 11.5758 20.0814 13.9918 18.2353 14.5845L16.116 15.2648L16.0026 17.525C15.9035 19.5003 13.7586 20.6296 12.1326 19.5626L10.0187 18.1753L7.84104 19.594C6.22078 20.6495 4.08983 19.5318 3.97901 17.5683L3.84852 15.2559L1.7782 14.6044C-0.10453 14.0119 -0.622599 11.5336 0.858257 10.2035L2.46489 8.76038L1.69719 6.7803C0.939485 4.826 2.47594 2.74524 4.51814 2.96001L6.81384 3.20143L7.75426 1.45078ZM6.24115 4.26753L4.40641 4.07459C3.1811 3.94573 2.25922 5.19418 2.71384 6.36676L3.33787 7.97627L4.01442 7.3686C4.73149 6.72452 5.33343 5.95731 5.79319 5.10143L6.24115 4.26753ZM3.76641 9.08158L4.73564 8.21101C5.54832 7.48106 6.23052 6.61156 6.75158 5.64156L7.42293 4.39181L9.21349 4.58012C9.85297 4.64737 10.4975 4.64651 11.1368 4.57755L12.8461 4.3932L13.5248 5.68886C14.0138 6.62253 14.6515 7.46608 15.4116 8.18474L16.263 8.98974L15.8292 10.0528C15.4164 11.0645 15.1773 12.1416 15.1224 13.2366L15.0626 14.4288L13.6105 14.8949C12.8321 15.1448 12.0893 15.4984 11.401 15.9468L10.0209 16.846L8.691 15.9732C7.98071 15.5071 7.2118 15.1421 6.40543 14.8884L4.8967 14.4136L4.82374 13.1209C4.76634 12.1037 4.54993 11.1025 4.18276 10.1555L3.76641 9.08158ZM2.89343 9.86569L1.57948 11.0459C0.742476 11.7977 1.0353 13.1985 2.09945 13.5334L3.78117 14.0626L3.73168 13.1856C3.68102 12.288 3.49007 11.4046 3.16611 10.569L2.89343 9.86569ZM4.96404 15.6069L5.07108 17.5036C5.13371 18.6134 6.33817 19.2452 7.25396 18.6486L9.00333 17.5089L8.10086 16.9166C7.47414 16.5053 6.79569 16.1833 6.08418 15.9594L4.96404 15.6069ZM11.0363 17.5123L12.7228 18.6191C13.6418 19.2223 14.8541 18.584 14.9101 17.4675L15.0027 15.6222L13.9376 15.9641C13.2508 16.1845 12.5954 16.4966 11.9881 16.8922L11.0363 17.5123ZM16.1758 14.0714L17.9082 13.5153C18.9516 13.1803 19.251 11.8148 18.4475 11.0551L17.1185 9.79862L16.8385 10.4849C16.4743 11.3775 16.2633 12.3279 16.2148 13.2941L16.1758 14.0714ZM16.712 7.88942L17.3146 6.41257C17.7953 5.23453 16.8685 3.95936 15.6288 4.09307L14.0211 4.26647L14.4887 5.15918C14.9202 5.98301 15.4829 6.72732 16.1535 7.36143L16.712 7.88942ZM12.2876 3.3268L11.0223 3.46327C10.4582 3.52412 9.88946 3.52487 9.32521 3.46554L7.99562 3.32571L8.71266 1.99091C9.33991 0.823239 10.981 0.832166 11.5962 2.00659L12.2876 3.3268Z" fill="url(#paint1_linear_318_3102)"/>
</g>
</g>
<defs>
<linearGradient id="paint0_linear_318_3102" x1="15.3333" y1="1.70455" x2="5.38687" y2="19.3565" gradientUnits="userSpaceOnUse">
<stop stop-color="#FF1080"/>
<stop offset="0.963543" stop-color="#42C4FF"/>
</linearGradient>
<linearGradient id="paint1_linear_318_3102" x1="4.33333" y1="2.5" x2="20.2511" y2="14.1454" gradientUnits="userSpaceOnUse">
<stop stop-color="#FF9124"/>
<stop offset="0.225429" stop-color="#FF9798" stop-opacity="0.519085"/>
<stop offset="0.375" stop-color="#EE988B" stop-opacity="0.2"/>
<stop offset="0.515" stop-color="#ED90A9" stop-opacity="0"/>
<stop offset="0.610586" stop-color="#EC88C5" stop-opacity="0.2"/>
<stop offset="1" stop-color="#EA7AFA"/>
</linearGradient>
</defs>
</svg>
