<svg preserveAspectRatio="none" width="100%" height="100%" overflow="visible" style="display: block;" viewBox="0 0 20 20" fill="none" xmlns="http://www.w3.org/2000/svg">
<g id="italic">
<path id="Vector" fill-rule="evenodd" clip-rule="evenodd" d="M7.5 3.33333C7.5 2.8731 7.8731 2.5 8.33333 2.5H15.8333C16.2936 2.5 16.6667 2.8731 16.6667 3.33333C16.6667 3.79357 16.2936 4.16667 15.8333 4.16667H12.696L9.05017 15.8333H11.6667C12.1269 15.8333 12.5 16.2064 12.5 16.6667C12.5 17.1269 12.1269 17.5 11.6667 17.5H4.16667C3.70643 17.5 3.33333 17.1269 3.33333 16.6667C3.33333 16.2064 3.70643 15.8333 4.16667 15.8333H7.30401L10.9498 4.16667H8.33333C7.8731 4.16667 7.5 3.79357 7.5 3.33333Z" fill="var(--fill-0, white)"/>
</g>
</svg>
