<svg preserveAspectRatio="none" width="100%" height="100%" overflow="visible" style="display: block;" viewBox="0 0 18 18" fill="none" xmlns="http://www.w3.org/2000/svg">
<g id="arrow-right-circle">
<path id="Vector" fill-rule="evenodd" clip-rule="evenodd" d="M9 16.5C13.1421 16.5 16.5 13.1421 16.5 9C16.5 4.85786 13.1421 1.5 9 1.5C4.85786 1.5 1.5 4.85786 1.5 9C1.5 13.1421 4.85786 16.5 9 16.5ZM10.2803 6.21967C9.98745 5.92678 9.51255 5.92678 9.21968 6.21967C8.9268 6.51256 8.9268 6.98744 9.21968 7.28033L10.1894 8.25H6C5.58579 8.25 5.25 8.58578 5.25 9C5.25 9.41422 5.58579 9.75 6 9.75H10.1894L9.21968 10.7197C8.9268 11.0126 8.9268 11.4874 9.21968 11.7803C9.51255 12.0732 9.98745 12.0732 10.2803 11.7803L12.5303 9.53032C12.8232 9.23745 12.8232 8.76255 12.5303 8.46968L10.2803 6.21967Z" fill="var(--fill-0, white)"/>
</g>
</svg>
