<svg preserveAspectRatio="none" width="100%" height="100%" overflow="visible" style="display: block;" viewBox="0 0 20 20" fill="none" xmlns="http://www.w3.org/2000/svg">
<g id="bullet-list">
<path id="Vector" d="M5 3.33333C3.61929 3.33333 2.5 4.45263 2.5 5.83333C2.5 7.21404 3.61929 8.33333 5 8.33333C6.38071 8.33333 7.5 7.21404 7.5 5.83333C7.5 4.45263 6.38071 3.33333 5 3.33333Z" fill="var(--fill-0, #1A1A1A)"/>
<path id="Vector_2" d="M10.8333 5C10.3731 5 10 5.3731 10 5.83333C10 6.29357 10.3731 6.66667 10.8333 6.66667H16.6667C17.1269 6.66667 17.5 6.29357 17.5 5.83333C17.5 5.3731 17.1269 5 16.6667 5H10.8333Z" fill="var(--fill-0, #1A1A1A)"/>
<path id="Vector_3" d="M5 11.6667C3.61929 11.6667 2.5 12.7859 2.5 14.1667C2.5 15.5474 3.61929 16.6667 5 16.6667C6.38071 16.6667 7.5 15.5474 7.5 14.1667C7.5 12.7859 6.38071 11.6667 5 11.6667Z" fill="var(--fill-0, #1A1A1A)"/>
<path id="Vector_4" d="M10.8333 13.3333C10.3731 13.3333 10 13.7064 10 14.1667C10 14.6269 10.3731 15 10.8333 15H16.6667C17.1269 15 17.5 14.6269 17.5 14.1667C17.5 13.7064 17.1269 13.3333 16.6667 13.3333H10.8333Z" fill="var(--fill-0, #1A1A1A)"/>
</g>
</svg>
