<svg preserveAspectRatio="none" width="100%" height="100%" overflow="visible" style="display: block;" viewBox="0 0 20 20" fill="none" xmlns="http://www.w3.org/2000/svg">
<g id="text-select-dashed">
<path id="Vector" d="M3.33333 1.66667C1.95263 1.66667 0.833333 2.78596 0.833333 4.16667C0.833333 5.25518 1.52901 6.18122 2.5 6.52441V15C2.5 15.4602 2.8731 15.8333 3.33333 15.8333C3.79357 15.8333 4.16667 15.4602 4.16667 15V6.52441C5.13766 6.18122 5.83333 5.25518 5.83333 4.16667C5.83333 2.78596 4.71404 1.66667 3.33333 1.66667Z" fill="var(--fill-0, #1A1A1A)"/>
<path id="Vector_2" d="M17.5 5C17.5 4.53977 17.1269 4.16667 16.6667 4.16667C16.2064 4.16667 15.8333 4.53977 15.8333 5V13.4756C14.8623 13.8187 14.1667 14.7448 14.1667 15.8333C14.1667 17.2141 15.2859 18.3333 16.6667 18.3333C18.0474 18.3333 19.1667 17.2141 19.1667 15.8333C19.1667 14.7448 18.471 13.8187 17.5 13.4756V5Z" fill="var(--fill-0, #1A1A1A)"/>
<path id="Vector_3" d="M5.83333 15C5.83333 14.5397 6.20643 14.1667 6.66667 14.1667H7.5C7.96023 14.1667 8.33333 14.5397 8.33333 15C8.33333 15.4602 7.96023 15.8333 7.5 15.8333H6.66667C6.20643 15.8333 5.83333 15.4602 5.83333 15Z" fill="var(--fill-0, #1A1A1A)"/>
<path id="Vector_4" d="M10.8333 14.1667C10.3731 14.1667 10 14.5397 10 15C10 15.4602 10.3731 15.8333 10.8333 15.8333H11.6667C12.1269 15.8333 12.5 15.4602 12.5 15C12.5 14.5397 12.1269 14.1667 11.6667 14.1667H10.8333Z" fill="var(--fill-0, #1A1A1A)"/>
<path id="Vector_5" d="M7.5 5C7.5 4.53977 7.87309 4.16667 8.33333 4.16667H9.16667C9.62692 4.16667 10 4.53977 10 5C10 5.46023 9.62692 5.83333 9.16667 5.83333H8.33333C7.87309 5.83333 7.5 5.46023 7.5 5Z" fill="var(--fill-0, #1A1A1A)"/>
<path id="Vector_6" d="M12.5 4.16667C12.0397 4.16667 11.6667 4.53977 11.6667 5C11.6667 5.46023 12.0397 5.83333 12.5 5.83333H13.3333C13.7936 5.83333 14.1667 5.46023 14.1667 5C14.1667 4.53977 13.7936 4.16667 13.3333 4.16667H12.5Z" fill="var(--fill-0, #1A1A1A)"/>
</g>
</svg>
