<svg preserveAspectRatio="none" width="100%" height="100%" overflow="visible" style="display: block;" viewBox="0 0 12 12" fill="none" xmlns="http://www.w3.org/2000/svg">
<g id="tag">
<path id="Vector" fill-rule="evenodd" clip-rule="evenodd" d="M1 3C1 1.89543 1.89543 1 3 1H5.3787C5.9091 1 6.4178 1.21072 6.7929 1.58579L10.4179 5.2108C11.199 5.99185 11.199 7.25815 10.4179 8.0392L8.0392 10.4179C7.25815 11.199 5.99185 11.199 5.2108 10.4179L1.58579 6.7929C1.21072 6.4178 1 5.9091 1 5.3787V3ZM3.75 4.5C4.16421 4.5 4.5 4.16421 4.5 3.75C4.5 3.33579 4.16421 3 3.75 3C3.33579 3 3 3.33579 3 3.75C3 4.16421 3.33579 4.5 3.75 4.5Z" fill="var(--fill-0, #3B82F6)"/>
</g>
</svg>
