<svg preserveAspectRatio="none" width="100%" height="100%" overflow="visible" style="display: block;" viewBox="0 0 20 20" fill="none" xmlns="http://www.w3.org/2000/svg">
<g id="summary">
<path id="Vector" fill-rule="evenodd" clip-rule="evenodd" d="M3.33333 4.16667C3.79357 4.16667 4.16667 4.53977 4.16667 5V11.6667C4.16667 12.5872 4.91286 13.3333 5.83333 13.3333H14.1667V12.5C14.1667 12.1797 14.3502 11.8877 14.639 11.7489C14.9277 11.6102 15.2704 11.6492 15.5206 11.8492L17.6039 13.5159C17.8016 13.6741 17.9167 13.9135 17.9167 14.1667C17.9167 14.4198 17.8016 14.6592 17.6039 14.8174L15.5206 16.4841C15.2704 16.6842 14.9277 16.7232 14.639 16.5844C14.3502 16.4457 14.1667 16.1537 14.1667 15.8333V15H5.83333C3.99238 15 2.5 13.5076 2.5 11.6667V5C2.5 4.53977 2.8731 4.16667 3.33333 4.16667ZM6.66667 5.83333C6.66667 5.3731 7.03977 5 7.5 5H14.1667C14.6269 5 15 5.3731 15 5.83333C15 6.29357 14.6269 6.66667 14.1667 6.66667H7.5C7.03977 6.66667 6.66667 6.29357 6.66667 5.83333ZM6.66667 10C6.66667 9.53975 7.03977 9.16667 7.5 9.16667H10.8333C11.2936 9.16667 11.6667 9.53975 11.6667 10C11.6667 10.4602 11.2936 10.8333 10.8333 10.8333H7.5C7.03977 10.8333 6.66667 10.4602 6.66667 10Z" fill="var(--fill-0, #1A1A1A)"/>
</g>
</svg>
