<svg preserveAspectRatio="none" width="100%" height="100%" overflow="visible" style="display: block;" viewBox="0 0 20 20" fill="none" xmlns="http://www.w3.org/2000/svg">
<g id="linebreak">
<path id="Vector" fill-rule="evenodd" clip-rule="evenodd" d="M2.5 4.16667C2.5 3.70643 2.8731 3.33333 3.33333 3.33333H16.6667C17.1269 3.33333 17.5 3.70643 17.5 4.16667C17.5 4.6269 17.1269 5 16.6667 5H3.33333C2.8731 5 2.5 4.6269 2.5 4.16667ZM2.5 10C2.5 9.53975 2.8731 9.16667 3.33333 9.16667H13.9583C16.0294 9.16667 17.7083 10.8456 17.7083 12.9167C17.7083 14.9877 16.0294 16.6667 13.9583 16.6667H12.0118L12.6726 17.3274C12.998 17.6528 12.998 18.1805 12.6726 18.5059C12.3472 18.8313 11.8195 18.8313 11.4941 18.5059L9.41075 16.4226C9.08533 16.0972 9.08533 15.5695 9.41075 15.2441L11.4941 13.1607C11.8195 12.8353 12.3472 12.8353 12.6726 13.1607C12.998 13.4862 12.998 14.0138 12.6726 14.3392L12.0118 15H13.9583C15.1089 15 16.0417 14.0672 16.0417 12.9167C16.0417 11.7661 15.1089 10.8333 13.9583 10.8333H3.33333C2.8731 10.8333 2.5 10.4602 2.5 10ZM2.5 15.8333C2.5 15.3731 2.8731 15 3.33333 15H5.83333C6.29357 15 6.66667 15.3731 6.66667 15.8333C6.66667 16.2936 6.29357 16.6667 5.83333 16.6667H3.33333C2.8731 16.6667 2.5 16.2936 2.5 15.8333Z" fill="var(--fill-0, white)"/>
</g>
</svg>
