<svg preserveAspectRatio="none" width="100%" height="100%" overflow="visible" style="display: block;" viewBox="0 0 20 20" fill="none" xmlns="http://www.w3.org/2000/svg">
<g id="h3">
<path id="Vector" fill-rule="evenodd" clip-rule="evenodd" d="M2.5 3.33333C2.96023 3.33333 3.33333 3.70643 3.33333 4.16667V9.16667H10V4.16667C10 3.70643 10.3731 3.33333 10.8333 3.33333C11.2936 3.33333 11.6667 3.70643 11.6667 4.16667V15.8333C11.6667 16.2936 11.2936 16.6667 10.8333 16.6667C10.3731 16.6667 10 16.2936 10 15.8333V10.8333H3.33333V15.8333C3.33333 16.2936 2.96023 16.6667 2.5 16.6667C2.03977 16.6667 1.66667 16.2936 1.66667 15.8333V4.16667C1.66667 3.70643 2.03977 3.33333 2.5 3.33333ZM16.6667 10C16.3592 10 16.0897 10.166 15.9443 10.4173C15.7138 10.8157 15.2041 10.9518 14.8057 10.7213C14.4073 10.4909 14.2712 9.98108 14.5017 9.58275C14.9327 8.83767 15.7402 8.33333 16.6667 8.33333C18.0474 8.33333 19.1667 9.45258 19.1667 10.8333C19.1667 11.4737 18.9259 12.0577 18.5301 12.5C18.9259 12.9423 19.1667 13.5263 19.1667 14.1667C19.1667 15.5474 18.0474 16.6667 16.6667 16.6667C15.7402 16.6667 14.9327 16.1623 14.5017 15.4173C14.2712 15.0189 14.4073 14.5091 14.8057 14.2787C15.2041 14.0483 15.7138 14.1843 15.9443 14.5828C16.0897 14.834 16.3592 15 16.6667 15C17.1269 15 17.5 14.6269 17.5 14.1667C17.5 13.7064 17.1269 13.3333 16.6667 13.3333C16.2064 13.3333 15.8333 12.9603 15.8333 12.5C15.8333 12.0398 16.2064 11.6667 16.6667 11.6667C17.1269 11.6667 17.5 11.2936 17.5 10.8333C17.5 10.3731 17.1269 10 16.6667 10Z" fill="var(--fill-0, #1A1A1A)"/>
</g>
</svg>
