<svg preserveAspectRatio="none" width="100%" height="100%" overflow="visible" style="display: block;" viewBox="0 0 20 20" fill="none" xmlns="http://www.w3.org/2000/svg">
<g id="alignment-justify">
<path id="Vector" fill-rule="evenodd" clip-rule="evenodd" d="M2.5 4.16667C2.5 3.70643 2.8731 3.33333 3.33333 3.33333H16.6667C17.1269 3.33333 17.5 3.70643 17.5 4.16667C17.5 4.6269 17.1269 5 16.6667 5H3.33333C2.8731 5 2.5 4.6269 2.5 4.16667ZM2.5 4.16667C2.5 3.70643 2.8731 3.33333 3.33333 3.33333H16.6667C17.1269 3.33333 17.5 3.70643 17.5 4.16667C17.5 4.6269 17.1269 5 16.6667 5H3.33333C2.8731 5 2.5 4.6269 2.5 4.16667ZM2.5 4.16667C2.5 3.70643 2.8731 3.33333 3.33333 3.33333H16.6667C17.1269 3.33333 17.5 3.70643 17.5 4.16667C17.5 4.6269 17.1269 5 16.6667 5H3.33333C2.8731 5 2.5 4.6269 2.5 4.16667Z" fill="var(--fill-0, white)"/>
<path id="Vector_2" d="M2.5 10C2.5 9.53975 2.8731 9.16667 3.33333 9.16667H16.6667C17.1269 9.16667 17.5 9.53975 17.5 10C17.5 10.4603 17.1269 10.8333 16.6667 10.8333H3.33333C2.8731 10.8333 2.5 10.4603 2.5 10Z" fill="var(--fill-0, white)"/>
<path id="Vector_3" d="M2.5 15.8333C2.5 15.3731 2.8731 15 3.33333 15H16.6667C17.1269 15 17.5 15.3731 17.5 15.8333C17.5 16.2936 17.1269 16.6667 16.6667 16.6667H3.33333C2.8731 16.6667 2.5 16.2936 2.5 15.8333Z" fill="var(--fill-0, white)"/>
</g>
</svg>
