<svg preserveAspectRatio="none" width="100%" height="100%" overflow="visible" style="display: block;" viewBox="0 0 20 20" fill="none" xmlns="http://www.w3.org/2000/svg">
<g id="text-indent-left">
<path id="Vector" fill-rule="evenodd" clip-rule="evenodd" d="M7.5 5C7.5 4.53977 7.8731 4.16667 8.33333 4.16667H17.5C17.9602 4.16667 18.3333 4.53977 18.3333 5C18.3333 5.46023 17.9602 5.83333 17.5 5.83333H8.33333C7.8731 5.83333 7.5 5.46023 7.5 5ZM2.15815 7.02332C2.45726 6.88878 2.80747 6.9422 3.05287 7.15978L5.55287 9.3765C5.73144 9.53483 5.83356 9.76208 5.83333 10.0007C5.83311 10.2394 5.73057 10.4666 5.55169 10.6246L3.05169 12.8329C2.8061 13.0498 2.45616 13.1027 2.15743 12.968C1.85872 12.8332 1.66667 12.536 1.66667 12.2083V7.78332C1.66667 7.45534 1.85904 7.15787 2.15815 7.02332ZM7.5 10C7.5 9.53975 7.8731 9.16667 8.33333 9.16667H17.5C17.9602 9.16667 18.3333 9.53975 18.3333 10C18.3333 10.4602 17.9602 10.8333 17.5 10.8333H8.33333C7.8731 10.8333 7.5 10.4602 7.5 10ZM7.5 15C7.5 14.5397 7.8731 14.1667 8.33333 14.1667H17.5C17.9602 14.1667 18.3333 14.5397 18.3333 15C18.3333 15.4602 17.9602 15.8333 17.5 15.8333H8.33333C7.8731 15.8333 7.5 15.4602 7.5 15Z" fill="var(--fill-0, #1A1A1A)"/>
</g>
</svg>
