<svg preserveAspectRatio="none" width="100%" height="100%" overflow="visible" style="display: block;" viewBox="0 0 20 20" fill="none" xmlns="http://www.w3.org/2000/svg">
<g id="strike-through">
<path id="Vector" d="M9.99925 1.66667C8.14084 1.66667 6.77059 2.27699 5.86409 3.1966C4.97233 4.10124 4.58256 5.25287 4.58256 6.25C4.58256 7.00065 4.75787 7.65356 5.0925 8.21222C5.31826 8.58908 5.60419 8.90267 5.92431 9.16667H2.5C2.03977 9.16667 1.66667 9.53975 1.66667 10C1.66667 10.4603 2.03977 10.8333 2.5 10.8333H17.5C17.9602 10.8333 18.3333 10.4603 18.3333 10C18.3333 9.53975 17.9602 9.16667 17.5 9.16667H10.2127C9.02883 8.85067 8.01748 8.56417 7.28933 8.10066C6.94094 7.8789 6.68937 7.63475 6.5223 7.35581C6.35826 7.08193 6.24922 6.73083 6.24922 6.25C6.24922 5.66477 6.48444 4.94139 7.05102 4.36663C7.60285 3.80683 8.52425 3.33333 9.99925 3.33333C11.5219 3.33333 12.3761 3.84056 12.8781 4.37234C13.4042 4.92965 13.6201 5.59708 13.7046 6.00313C13.7983 6.45371 14.2397 6.74296 14.6902 6.64918C15.1408 6.55542 15.4301 6.11413 15.3362 5.66354C15.2175 5.09261 14.9067 4.09337 14.0901 3.22826C13.2493 2.33762 11.9446 1.66667 9.99925 1.66667Z" fill="var(--fill-0, white)"/>
<path id="Vector_2" d="M15.5955 13.2379C15.5427 12.7806 15.1293 12.4528 14.6722 12.5055C14.2149 12.5583 13.8871 12.9717 13.9398 13.4289C13.9513 13.5284 13.9576 13.6352 13.9576 13.75C13.9576 14.8299 12.9158 16.6667 9.99925 16.6667C8.4755 16.6667 7.5366 16.1574 6.94312 15.5949C6.33004 15.0139 6.03247 14.3235 5.90151 13.9133C5.76155 13.4749 5.29267 13.2329 4.85422 13.3729C4.41578 13.5128 4.17382 13.9817 4.31378 14.4201C4.49469 14.9869 4.9089 15.9632 5.79663 16.8045C6.70397 17.6645 8.05488 18.3334 9.99925 18.3334C13.7493 18.3334 15.6242 15.8349 15.6242 13.75C15.6242 13.5747 15.6147 13.4039 15.5955 13.2379Z" fill="var(--fill-0, white)"/>
</g>
</svg>
