<svg preserveAspectRatio="none" width="100%" height="100%" overflow="visible" style="display: block;" viewBox="0 0 20 20" fill="none" xmlns="http://www.w3.org/2000/svg">
<g id="text-indent-right">
<path id="Vector" fill-rule="evenodd" clip-rule="evenodd" d="M12.5 5C12.5 4.53977 12.1269 4.16667 11.6667 4.16667H2.5C2.03977 4.16667 1.66667 4.53977 1.66667 5C1.66667 5.46023 2.03977 5.83333 2.5 5.83333H11.6667C12.1269 5.83333 12.5 5.46023 12.5 5ZM17.8418 7.02332C17.5427 6.88878 17.1925 6.9422 16.9472 7.15978L14.4472 9.3765C14.2686 9.53483 14.1664 9.76208 14.1667 10.0007C14.1669 10.2394 14.2694 10.4666 14.4483 10.6246L16.9483 12.8329C17.1939 13.0498 17.5438 13.1027 17.8426 12.968C18.1412 12.8332 18.3333 12.536 18.3333 12.2083V7.78332C18.3333 7.45534 18.1409 7.15787 17.8418 7.02332ZM12.5 10C12.5 9.53975 12.1269 9.16667 11.6667 9.16667H2.5C2.03977 9.16667 1.66667 9.53975 1.66667 10C1.66667 10.4602 2.03977 10.8333 2.5 10.8333H11.6667C12.1269 10.8333 12.5 10.4602 12.5 10ZM12.5 15C12.5 14.5397 12.1269 14.1667 11.6667 14.1667H2.5C2.03977 14.1667 1.66667 14.5397 1.66667 15C1.66667 15.4602 2.03977 15.8333 2.5 15.8333H11.6667C12.1269 15.8333 12.5 15.4602 12.5 15Z" fill="var(--fill-0, #1A1A1A)"/>
</g>
</svg>
