<svg preserveAspectRatio="none" width="100%" height="100%" overflow="visible" style="display: block;" viewBox="0 0 20 20" fill="none" xmlns="http://www.w3.org/2000/svg">
<g id="broom-sparkle">
<path id="Vector" d="M3.48618 6.17338C3.56682 6.13306 3.6322 6.06768 3.67252 5.98705L4.20995 4.91218C4.3635 4.60508 4.80176 4.60508 4.95531 4.91218L5.49273 5.98705C5.53306 6.06768 5.59844 6.13306 5.67907 6.17338L6.75394 6.71081C7.06104 6.86436 7.06104 7.30262 6.75394 7.45617L5.67907 7.9936C5.59844 8.03392 5.53306 8.09931 5.49273 8.17994L4.95531 9.25476C4.80175 9.56193 4.3635 9.56193 4.20995 9.25476L3.67252 8.17994C3.6322 8.09931 3.56682 8.03392 3.48618 7.9936L2.41132 7.45617C2.10422 7.30262 2.10422 6.86436 2.41132 6.71081L3.48618 6.17338Z" fill="var(--fill-0, #1A1A1A)"/>
<path id="Vector_2" d="M7.96612 3.10009C8.02372 3.07129 8.07042 3.02459 8.09922 2.96699L8.48308 2.19923C8.59275 1.97987 8.90583 1.97987 9.0155 2.19923L9.39933 2.96699C9.42817 3.02459 9.47492 3.07129 9.5325 3.10009L10.3003 3.48397C10.5196 3.59364 10.5196 3.90669 10.3003 4.01636L9.5325 4.40024C9.47492 4.42904 9.42817 4.47574 9.39933 4.53334L9.0155 5.3011C8.90583 5.52046 8.59275 5.52046 8.48308 5.3011L8.09922 4.53334C8.07042 4.47574 8.02372 4.42904 7.96612 4.40024L7.19836 4.01636C6.979 3.90669 6.979 3.59364 7.19836 3.48397L7.96612 3.10009Z" fill="var(--fill-0, #1A1A1A)"/>
<path id="Vector_3" d="M17.0777 1.77559C17.4778 2.00295 17.6179 2.51165 17.3905 2.91181L13.5084 9.7445L13.7276 9.82425C14.9948 10.2855 16.0082 11.5426 15.7974 13.0441C15.5174 15.0383 14.6657 16.4777 13.0937 18.0832C12.8543 18.3276 12.49 18.4009 12.1748 18.2682L7.47168 16.2877C7.38292 16.2503 7.34422 16.1457 7.38729 16.0595L8.11002 14.614C8.18166 14.4708 8.02964 14.3188 7.88638 14.3904L5.70622 15.481C5.66269 15.5028 5.61182 15.5044 5.56697 15.4855L4.25922 14.9348C3.9765 14.8158 3.78205 14.551 3.75304 14.2456C3.72402 13.9403 3.86515 13.6436 4.12039 13.4734C5.3348 12.6638 6.30577 11.8711 7.03519 10.7237C7.91559 9.33867 9.66375 8.34517 11.4359 8.99017L11.92 9.16633L15.9414 2.08848C16.1687 1.68833 16.6775 1.54823 17.0777 1.77559Z" fill="var(--fill-0, #1A1A1A)"/>
</g>
</svg>
