<svg preserveAspectRatio="none" width="100%" height="100%" overflow="visible" style="display: block;" viewBox="0 0 20 20" fill="none" xmlns="http://www.w3.org/2000/svg">
<g id="underline">
<path id="Vector" d="M5.83333 3.33333C5.83333 2.8731 5.46023 2.5 5 2.5C4.53977 2.5 4.16667 2.8731 4.16667 3.33333V10C4.16667 13.2217 6.77834 15.8333 10 15.8333C13.2217 15.8333 15.8333 13.2217 15.8333 10V3.33333C15.8333 2.8731 15.4602 2.5 15 2.5C14.5397 2.5 14.1667 2.8731 14.1667 3.33333V10C14.1667 12.3012 12.3012 14.1667 10 14.1667C7.69882 14.1667 5.83333 12.3012 5.83333 10V3.33333Z" fill="var(--fill-0, white)"/>
<path id="Vector_2" d="M5 16.6667C4.53977 16.6667 4.16667 17.0397 4.16667 17.5C4.16667 17.9602 4.53977 18.3333 5 18.3333H15C15.4602 18.3333 15.8333 17.9602 15.8333 17.5C15.8333 17.0397 15.4602 16.6667 15 16.6667H5Z" fill="var(--fill-0, white)"/>
</g>
</svg>
