<svg preserveAspectRatio="none" width="100%" height="100%" overflow="visible" style="display: block;" viewBox="0 0 20 20" fill="none" xmlns="http://www.w3.org/2000/svg">
<g id="arrow-left-x">
<path id="Vector" fill-rule="evenodd" clip-rule="evenodd" d="M7.84837 3.33333C6.85086 3.33333 5.90578 3.78007 5.27261 4.55087L2.53452 7.8842C1.52441 9.11392 1.52441 10.8861 2.53452 12.1158L5.27261 15.4492C5.90577 16.2199 6.85086 16.6667 7.84837 16.6667H15C16.8409 16.6667 18.3333 15.1742 18.3333 13.3333V6.66667C18.3333 4.82572 16.8409 3.33333 15 3.33333H7.84837ZM8.78434 7.74407C9.10975 7.41864 9.63742 7.41864 9.96284 7.74407L11.0417 8.82292L12.1204 7.74407C12.4459 7.41864 12.9735 7.41864 13.2989 7.74407C13.6244 8.06952 13.6244 8.59717 13.2989 8.92258L12.2202 10.0014L13.2976 11.0788C13.623 11.4042 13.623 11.9318 13.2976 12.2573C12.9722 12.5827 12.4445 12.5827 12.1191 12.2573L11.0417 11.1799L9.96425 12.2573C9.63884 12.5827 9.11117 12.5827 8.78575 12.2573C8.46025 11.9318 8.46025 11.4042 8.78575 11.0788L9.86317 10.0014L8.78434 8.92258C8.45892 8.59717 8.45892 8.06952 8.78434 7.74407Z" fill="var(--fill-0, #141414)"/>
</g>
</svg>
