<svg preserveAspectRatio="none" width="100%" height="100%" overflow="visible" style="display: block;" viewBox="0 0 32 32" fill="none" xmlns="http://www.w3.org/2000/svg">
<g id="dot-grid-1x3-horizontal" opacity="0">
<path id="Vector" fill-rule="evenodd" clip-rule="evenodd" d="M0.108181 0.648728C0.108181 0.58902 0.156582 0.54062 0.216289 0.54062C0.275995 0.54062 0.324397 0.58902 0.324397 0.648728C0.324397 0.708436 0.275995 0.756836 0.216289 0.756836C0.156582 0.756836 0.108181 0.708436 0.108181 0.648728ZM0.540613 0.648728C0.540613 0.58902 0.589013 0.54062 0.648721 0.54062C0.708429 0.54062 0.756829 0.58902 0.756829 0.648728C0.756829 0.708436 0.708429 0.756836 0.648721 0.756836C0.589013 0.756836 0.540613 0.708436 0.540613 0.648728ZM0.973046 0.648728C0.973046 0.58902 1.02145 0.54062 1.08115 0.54062C1.14086 0.54062 1.18926 0.58902 1.18926 0.648728C1.18926 0.708436 1.14086 0.756836 1.08115 0.756836C1.02145 0.756836 0.973046 0.708436 0.973046 0.648728Z" fill="var(--fill-0, #1A1A1A)"/>
</g>
</svg>
