<svg preserveAspectRatio="none" width="100%" height="100%" overflow="visible" style="display: block;" viewBox="0 0 20 20" fill="none" xmlns="http://www.w3.org/2000/svg">
<g id="h2">
<path id="Vector" fill-rule="evenodd" clip-rule="evenodd" d="M2.5 3.33333C2.96023 3.33333 3.33333 3.70643 3.33333 4.16667V9.16667H10V4.16667C10 3.70643 10.3731 3.33333 10.8333 3.33333C11.2936 3.33333 11.6667 3.70643 11.6667 4.16667V15.8333C11.6667 16.2936 11.2936 16.6667 10.8333 16.6667C10.3731 16.6667 10 16.2936 10 15.8333V10.8333H3.33333V15.8333C3.33333 16.2936 2.96023 16.6667 2.5 16.6667C2.03977 16.6667 1.66667 16.2936 1.66667 15.8333V4.16667C1.66667 3.70643 2.03977 3.33333 2.5 3.33333ZM16.6667 10C16.3592 10 16.0897 10.166 15.9443 10.4173C15.7138 10.8157 15.2041 10.9518 14.8057 10.7213C14.4073 10.4909 14.2712 9.98108 14.5017 9.58275C14.9327 8.83767 15.7402 8.33333 16.6667 8.33333C18.0474 8.33333 19.1667 9.45258 19.1667 10.8333V11.033C19.1667 11.6363 18.9485 12.2189 18.553 12.6737L16.7184 15H18.3333C18.7936 15 19.1667 15.3731 19.1667 15.8333C19.1667 16.2936 18.7936 16.6667 18.3333 16.6667H15C14.6807 16.6667 14.3895 16.4843 14.2502 16.1969C14.1108 15.9097 14.1479 15.568 14.3457 15.3173L17.258 11.6243C17.2682 11.6114 17.2787 11.5988 17.2895 11.5867C17.4251 11.4341 17.5 11.2371 17.5 11.033V10.8333C17.5 10.3731 17.1269 10 16.6667 10Z" fill="var(--fill-0, #1A1A1A)"/>
</g>
</svg>
