<svg preserveAspectRatio="none" width="100%" height="100%" overflow="visible" style="display: block;" viewBox="0 0 16 16" fill="none" xmlns="http://www.w3.org/2000/svg">
<g id="circle-plus">
<path id="Vector" fill-rule="evenodd" clip-rule="evenodd" d="M1.33333 8C1.33333 4.3181 4.3181 1.33333 8 1.33333C11.6819 1.33333 14.6667 4.3181 14.6667 8C14.6667 11.6819 11.6819 14.6667 8 14.6667C4.3181 14.6667 1.33333 11.6819 1.33333 8ZM10.6667 8.6666C11.0349 8.6666 11.3333 8.36813 11.3333 7.99993C11.3333 7.63173 11.0349 7.33327 10.6667 7.33327L8.66667 7.33333V5.33341C8.66667 4.96523 8.3682 4.66675 8 4.66675C7.6318 4.66675 7.33333 4.96523 7.33333 5.33341V7.33333L5.33331 7.3334C4.96513 7.3334 4.66665 7.63193 4.66667 8.00007C4.66668 8.36827 4.96516 8.66673 5.33335 8.66673L7.33333 8.66667V10.6667C7.33333 11.0349 7.6318 11.3333 8 11.3333C8.3682 11.3333 8.66667 11.0349 8.66667 10.6667V8.66667L10.6667 8.6666Z" fill="var(--fill-0, white)"/>
</g>
</svg>
