<svg preserveAspectRatio="none" width="100%" height="100%" overflow="visible" style="display: block;" viewBox="0 0 20 20" fill="none" xmlns="http://www.w3.org/2000/svg">
<g id="alignment-center">
<path id="Vector" fill-rule="evenodd" clip-rule="evenodd" d="M2.5 4.16667C2.5 3.70643 2.8731 3.33333 3.33333 3.33333H16.6667C17.1269 3.33333 17.5 3.70643 17.5 4.16667C17.5 4.6269 17.1269 5 16.6667 5H3.33333C2.8731 5 2.5 4.6269 2.5 4.16667ZM2.5 4.16667C2.5 3.70643 2.8731 3.33333 3.33333 3.33333H16.6667C17.1269 3.33333 17.5 3.70643 17.5 4.16667C17.5 4.6269 17.1269 5 16.6667 5H3.33333C2.8731 5 2.5 4.6269 2.5 4.16667ZM2.5 4.16667C2.5 3.70643 2.8731 3.33333 3.33333 3.33333H16.6667C17.1269 3.33333 17.5 3.70643 17.5 4.16667C17.5 4.6269 17.1269 5 16.6667 5H3.33333C2.8731 5 2.5 4.6269 2.5 4.16667Z" fill="var(--fill-0, #1A1A1A)"/>
<path id="Vector_2" d="M5.83333 10C5.83333 9.53975 6.20643 9.16667 6.66667 9.16667H13.3333C13.7936 9.16667 14.1667 9.53975 14.1667 10C14.1667 10.4603 13.7936 10.8333 13.3333 10.8333H6.66667C6.20643 10.8333 5.83333 10.4603 5.83333 10Z" fill="var(--fill-0, #1A1A1A)"/>
<path id="Vector_3" d="M2.5 15.8333C2.5 15.3731 2.8731 15 3.33333 15H16.6667C17.1269 15 17.5 15.3731 17.5 15.8333C17.5 16.2936 17.1269 16.6667 16.6667 16.6667H3.33333C2.8731 16.6667 2.5 16.2936 2.5 15.8333Z" fill="var(--fill-0, #1A1A1A)"/>
</g>
</svg>
