<svg preserveAspectRatio="none" width="100%" height="100%" overflow="visible" style="display: block;" viewBox="0 0 12 12" fill="none" xmlns="http://www.w3.org/2000/svg">
<g id="circle-plus">
<path id="Vector" fill-rule="evenodd" clip-rule="evenodd" d="M1 6C1 3.23857 3.23857 1 6 1C8.7614 1 11 3.23857 11 6C11 8.7614 8.7614 11 6 11C3.23857 11 1 8.7614 1 6ZM8 6.49995C8.27615 6.49995 8.5 6.2761 8.5 5.99995C8.5 5.7238 8.27615 5.49995 8 5.49995L6.5 5.5V4.00006C6.5 3.72392 6.27615 3.50006 6 3.50006C5.72385 3.50006 5.5 3.72392 5.5 4.00006V5.5L3.99998 5.50005C3.72384 5.50005 3.49999 5.72395 3.5 6.00005C3.50001 6.2762 3.72387 6.50005 4.00001 6.50005L5.5 6.5V8C5.5 8.27615 5.72385 8.5 6 8.5C6.27615 8.5 6.5 8.27615 6.5 8V6.5L8 6.49995Z" fill="var(--fill-0, white)" fill-opacity="0.75"/>
</g>
</svg>
