<svg width="14" height="14" viewBox="0 0 14 14" fill="none" xmlns="http://www.w3.org/2000/svg">
<path d="M0 7C0 4.19108 0 2.78661 0.674122 1.77772C0.965956 1.34096 1.34096 0.965956 1.77772 0.674122C2.78661 0 4.19108 0 7 0V0C9.80892 0 11.2134 0 12.2223 0.674122C12.659 0.965956 13.034 1.34096 13.3259 1.77772C14 2.78661 14 4.19108 14 7V7C14 9.80892 14 11.2134 13.3259 12.2223C13.034 12.659 12.659 13.034 12.2223 13.3259C11.2134 14 9.80892 14 7 14V14C4.19108 14 2.78661 14 1.77772 13.3259C1.34096 13.034 0.965956 12.659 0.674122 12.2223C0 11.2134 0 9.80892 0 7V7Z" fill="#1A1A1A" fill-opacity="0.06"/>
<path d="M7 0.5C8.41477 0.5 9.43821 0.500954 10.2354 0.582031C11.0241 0.662267 11.5358 0.816875 11.9443 1.08984C12.3265 1.3452 12.6548 1.6735 12.9102 2.05566C13.1831 2.46424 13.3377 2.97591 13.418 3.76465C13.499 4.56179 13.5 5.58523 13.5 7C13.5 8.41477 13.499 9.43821 13.418 10.2354C13.3377 11.0241 13.1831 11.5358 12.9102 11.9443C12.6548 12.3265 12.3265 12.6548 11.9443 12.9102C11.5358 13.1831 11.0241 13.3377 10.2354 13.418C9.43821 13.499 8.41477 13.5 7 13.5C5.58523 13.5 4.56179 13.499 3.76465 13.418C2.97591 13.3377 2.46424 13.1831 2.05566 12.9102C1.6735 12.6548 1.3452 12.3265 1.08984 11.9443C0.816875 11.5358 0.662267 11.0241 0.582031 10.2354C0.500954 9.43821 0.5 8.41477 0.5 7C0.5 5.58523 0.500954 4.56179 0.582031 3.76465C0.662267 2.97591 0.816875 2.46424 1.08984 2.05566C1.3452 1.6735 1.6735 1.3452 2.05566 1.08984C2.46424 0.816875 2.97591 0.662267 3.76465 0.582031C4.56179 0.500954 5.58523 0.5 7 0.5Z" stroke="#1A1A1A" stroke-opacity="0.2"/>
</svg>
