<svg width="18" height="18" viewBox="0 0 18 18" fill="none" xmlns="http://www.w3.org/2000/svg">
<path d="M2 9C2 6.19108 2 4.78661 2.67412 3.77772C2.96596 3.34096 3.34096 2.96596 3.77772 2.67412C4.78661 2 6.19108 2 9 2C11.8089 2 13.2134 2 14.2223 2.67412C14.659 2.96596 15.034 3.34096 15.3259 3.77772C16 4.78661 16 6.19108 16 9C16 11.8089 16 13.2134 15.3259 14.2223C15.034 14.659 14.659 15.034 14.2223 15.3259C13.2134 16 11.8089 16 9 16C6.19108 16 4.78661 16 3.77772 15.3259C3.34096 15.034 2.96596 14.659 2.67412 14.2223C2 13.2134 2 11.8089 2 9Z" fill="url(#paint0_linear_148_2629)"/>
<path fill-rule="evenodd" clip-rule="evenodd" d="M13.2439 5.43558C13.5556 5.70834 13.5872 6.18216 13.3145 6.49389L8.06445 12.4939C7.92773 12.6501 7.73243 12.7427 7.52498 12.7496C7.3175 12.7565 7.11645 12.6771 6.96967 12.5303L4.71967 10.2803C4.42678 9.98745 4.42678 9.51255 4.71967 9.21968C5.01257 8.9268 5.48743 8.9268 5.78033 9.21968L7.46347 10.9028L12.1856 5.50613C12.4583 5.1944 12.9322 5.16281 13.2439 5.43558Z" fill="white"/>
<defs>
<linearGradient id="paint0_linear_148_2629" x1="9" y1="2" x2="9" y2="16" gradientUnits="userSpaceOnUse">
<stop stop-color="#3B82F6"/>
<stop offset="1" stop-color="#2563EB"/>
</linearGradient>
</defs>
</svg>
