<svg width="18" height="22" viewBox="0 0 18 22" fill="none" xmlns="http://www.w3.org/2000/svg">
<rect width="18" height="22" fill="#D2D2D2"/>
<g id="note-card-thumbnail" filter="url(#filter0_dddd_4_156)">
<rect width="18" height="22" rx="2.59459" fill="#1A1A1A" fill-opacity="0.06"/>
<rect x="-0.25" y="-0.25" width="18.5" height="22.5" rx="2.84459" stroke="#1A1A1A" stroke-opacity="0.2" stroke-width="0.5"/>
<g id="Frame 9">
<g id="date">
<path d="M1.2973 2.72973C1.2973 1.93862 1.93862 1.2973 2.72974 1.2973H6.45946C7.25057 1.2973 7.8919 1.93862 7.8919 2.72973C7.8919 3.52085 7.25057 4.16217 6.45946 4.16217H2.72974C1.93863 4.16217 1.2973 3.52085 1.2973 2.72973Z" fill="#E4E4E7"/>
</g>
<g id="btn">
<rect x="14.5406" y="1.64865" width="2.16216" height="2.16216" rx="1.08108" fill="#E4E4E7"/>
</g>
</g>
<g id="Content Container">
<g id="Frame 10">
<path d="M1.2973 6.45946C1.2973 5.90717 1.74502 5.45946 2.2973 5.45946H13.2973C13.8496 5.45946 14.2973 5.90717 14.2973 6.45946V6.45946C14.2973 7.01174 13.8496 7.45946 13.2973 7.45946H2.2973C1.74502 7.45946 1.2973 7.01174 1.2973 6.45946V6.45946Z" fill="#E4E4E7"/>
</g>
<g id="Frame 11">
<path d="M1.2973 9.62162C1.2973 8.90514 1.87812 8.32433 2.5946 8.32433H15.4054C16.1219 8.32433 16.7027 8.90515 16.7027 9.62162V19.4054C16.7027 20.1219 16.1219 20.7027 15.4054 20.7027H2.5946C1.87812 20.7027 1.2973 20.1219 1.2973 19.4054V9.62162Z" fill="#E4E4E7"/>
</g>
</g>
</g>
<defs>
<filter id="filter0_dddd_4_156" x="-3.5" y="-0.5" width="25" height="34" filterUnits="userSpaceOnUse" color-interpolation-filters="sRGB">
<feFlood flood-opacity="0" result="BackgroundImageFix"/>
<feColorMatrix in="SourceAlpha" type="matrix" values="0 0 0 0 0 0 0 0 0 0 0 0 0 0 0 0 0 0 127 0" result="hardAlpha"/>
<feOffset dy="1"/>
<feGaussianBlur stdDeviation="0.5"/>
<feColorMatrix type="matrix" values="0 0 0 0 0 0 0 0 0 0 0 0 0 0 0 0 0 0 0.04 0"/>
<feBlend mode="normal" in2="BackgroundImageFix" result="effect1_dropShadow_4_156"/>
<feColorMatrix in="SourceAlpha" type="matrix" values="0 0 0 0 0 0 0 0 0 0 0 0 0 0 0 0 0 0 127 0" result="hardAlpha"/>
<feOffset dy="2"/>
<feGaussianBlur stdDeviation="1"/>
<feColorMatrix type="matrix" values="0 0 0 0 0 0 0 0 0 0 0 0 0 0 0 0 0 0 0.03 0"/>
<feBlend mode="normal" in2="effect1_dropShadow_4_156" result="effect2_dropShadow_4_156"/>
<feColorMatrix in="SourceAlpha" type="matrix" values="0 0 0 0 0 0 0 0 0 0 0 0 0 0 0 0 0 0 127 0" result="hardAlpha"/>
<feOffset dy="5"/>
<feGaussianBlur stdDeviation="1.5"/>
<feColorMatrix type="matrix" values="0 0 0 0 0 0 0 0 0 0 0 0 0 0 0 0 0 0 0.02 0"/>
<feBlend mode="normal" in2="effect2_dropShadow_4_156" result="effect3_dropShadow_4_156"/>
<feColorMatrix in="SourceAlpha" type="matrix" values="0 0 0 0 0 0 0 0 0 0 0 0 0 0 0 0 0 0 127 0" result="hardAlpha"/>
<feOffset dy="8"/>
<feGaussianBlur stdDeviation="1.5"/>
<feColorMatrix type="matrix" values="0 0 0 0 0 0 0 0 0 0 0 0 0 0 0 0 0 0 0.01 0"/>
<feBlend mode="normal" in2="effect3_dropShadow_4_156" result="effect4_dropShadow_4_156"/>
<feBlend mode="normal" in="SourceGraphic" in2="effect4_dropShadow_4_156" result="shape"/>
</filter>
</defs>
</svg>
