<svg width="18" height="22" viewBox="0 0 18 22" fill="none" xmlns="http://www.w3.org/2000/svg">
<g filter="url(#filter0_dddd_423_768)">
<rect width="18" height="22" rx="2.59459" fill="white" fill-opacity="0.06"/>
<rect x="-0.25" y="-0.25" width="18.5" height="22.5" rx="2.84459" stroke="white" stroke-opacity="0.09" stroke-width="0.5"/>
<path d="M1.29724 2.7298C1.29724 1.93868 1.93856 1.29736 2.72967 1.29736H6.4594C7.25051 1.29736 7.89184 1.93868 7.89184 2.7298C7.89184 3.52091 7.25051 4.16223 6.4594 4.16223H2.72968C1.93856 4.16223 1.29724 3.52091 1.29724 2.7298Z" fill="#09090B"/>
<rect x="14.5405" y="1.64868" width="2.16216" height="2.16216" rx="1.08108" fill="#09090B"/>
<path d="M1.29724 6.45947C1.29724 5.90719 1.74496 5.45947 2.29724 5.45947H13.2972C13.8495 5.45947 14.2972 5.90719 14.2972 6.45947C14.2972 7.01176 13.8495 7.45947 13.2972 7.45947H2.29724C1.74496 7.45947 1.29724 7.01176 1.29724 6.45947Z" fill="#09090B"/>
<path d="M1.29724 9.62152C1.29724 8.90504 1.87806 8.32422 2.59454 8.32422H15.4053C16.1218 8.32422 16.7026 8.90504 16.7026 9.62152V19.4053C16.7026 20.1218 16.1218 20.7026 15.4053 20.7026H2.59454C1.87806 20.7026 1.29724 20.1218 1.29724 19.4053V9.62152Z" fill="#09090B"/>
</g>
<defs>
<filter id="filter0_dddd_423_768" x="-3.5" y="-0.5" width="25" height="34" filterUnits="userSpaceOnUse" color-interpolation-filters="sRGB">
<feFlood flood-opacity="0" result="BackgroundImageFix"/>
<feColorMatrix in="SourceAlpha" type="matrix" values="0 0 0 0 0 0 0 0 0 0 0 0 0 0 0 0 0 0 127 0" result="hardAlpha"/>
<feOffset dy="1"/>
<feGaussianBlur stdDeviation="0.5"/>
<feColorMatrix type="matrix" values="0 0 0 0 0 0 0 0 0 0 0 0 0 0 0 0 0 0 0.04 0"/>
<feBlend mode="normal" in2="BackgroundImageFix" result="effect1_dropShadow_423_768"/>
<feColorMatrix in="SourceAlpha" type="matrix" values="0 0 0 0 0 0 0 0 0 0 0 0 0 0 0 0 0 0 127 0" result="hardAlpha"/>
<feOffset dy="2"/>
<feGaussianBlur stdDeviation="1"/>
<feColorMatrix type="matrix" values="0 0 0 0 0 0 0 0 0 0 0 0 0 0 0 0 0 0 0.03 0"/>
<feBlend mode="normal" in2="effect1_dropShadow_423_768" result="effect2_dropShadow_423_768"/>
<feColorMatrix in="SourceAlpha" type="matrix" values="0 0 0 0 0 0 0 0 0 0 0 0 0 0 0 0 0 0 127 0" result="hardAlpha"/>
<feOffset dy="5"/>
<feGaussianBlur stdDeviation="1.5"/>
<feColorMatrix type="matrix" values="0 0 0 0 0 0 0 0 0 0 0 0 0 0 0 0 0 0 0.02 0"/>
<feBlend mode="normal" in2="effect2_dropShadow_423_768" result="effect3_dropShadow_423_768"/>
<feColorMatrix in="SourceAlpha" type="matrix" values="0 0 0 0 0 0 0 0 0 0 0 0 0 0 0 0 0 0 127 0" result="hardAlpha"/>
<feOffset dy="8"/>
<feGaussianBlur stdDeviation="1.5"/>
<feColorMatrix type="matrix" values="0 0 0 0 0 0 0 0 0 0 0 0 0 0 0 0 0 0 0.01 0"/>
<feBlend mode="normal" in2="effect3_dropShadow_423_768" result="effect4_dropShadow_423_768"/>
<feBlend mode="normal" in="SourceGraphic" in2="effect4_dropShadow_423_768" result="shape"/>
</filter>
</defs>
</svg>
